# WaveFront *.obj file (generated by Autodesk ATF)

mtllib Arrow.mtl

g Arrow

v -0.750000 0.000000 -0.500000
v -0.750000 0.100000 -0.500000
v -0.250000 0.000000 -0.500000
v -0.250000 0.000000 1.500000
v -0.250000 0.100000 -0.500000
v -0.250000 0.100000 1.500000
v 0.000000 0.000000 -1.500000
v 0.000000 0.100000 -1.500000
v 0.250000 0.000000 -0.500000
v 0.250000 0.000000 1.500000
v 0.250000 0.100000 -0.500000
v 0.250000 0.100000 1.500000
v 0.750000 0.000000 -0.500000
v 0.750000 0.100000 -0.500000
vt 0.000000 0.000000 0.000000
vt 0.125000 0.000000 0.000000
vt 0.125000 0.010000 0.000000
vt 0.000000 0.010000 0.000000
vt 0.000000 0.000000 0.000000
vt 0.050000 0.000000 0.000000
vt 0.050000 0.010000 0.000000
vt 0.000000 0.010000 0.000000
vt 0.000000 0.000000 0.000000
vt 0.200000 0.000000 0.000000
vt 0.200000 0.010000 0.000000
vt 0.000000 0.010000 0.000000
vt 0.000000 0.000000 0.000000
vt 0.050000 0.000000 0.000000
vt 0.050000 0.010000 0.000000
vt 0.000000 0.010000 0.000000
vt 0.000000 0.000000 0.000000
vt 0.200000 0.000000 0.000000
vt 0.200000 0.010000 0.000000
vt 0.000000 0.010000 0.000000
vt 0.000000 0.000000 0.000000
vt 0.050000 0.000000 0.000000
vt 0.050000 0.010000 0.000000
vt 0.000000 0.010000 0.000000
vt 0.000000 0.000000 0.000000
vt 0.125000 0.000000 0.000000
vt 0.125000 0.010000 0.000000
vt 0.000000 0.010000 0.000000
vt -0.146875 0.000000 0.000000
vt -0.046875 -0.075000 0.000000
vt -0.046875 -0.025000 0.000000
vt 0.153125 -0.025000 0.000000
vt 0.153125 0.025000 0.000000
vt -0.046875 0.025000 0.000000
vt -0.046875 0.075000 0.000000
vt 0.046875 -0.075000 0.000000
vt 0.146875 0.000000 0.000000
vt 0.046875 0.075000 0.000000
vt 0.046875 0.025000 0.000000
vt -0.153125 0.025000 0.000000
vt -0.153125 -0.025000 0.000000
vt 0.046875 -0.025000 0.000000
vn 0.080000 0.000000 -0.060000
vn 0.080000 0.000000 -0.060000
vn 0.080000 0.000000 -0.060000
vn 0.080000 0.000000 -0.060000
vn 0.000000 0.000000 0.100000
vn 0.000000 0.000000 0.100000
vn 0.000000 0.000000 0.100000
vn 0.000000 0.000000 0.100000
vn 0.100000 0.000000 0.000000
vn 0.100000 0.000000 0.000000
vn 0.100000 0.000000 0.000000
vn 0.100000 0.000000 0.000000
vn 0.000000 0.000000 0.100000
vn 0.000000 0.000000 0.100000
vn 0.000000 0.000000 0.100000
vn 0.000000 0.000000 0.100000
vn -0.100000 0.000000 0.000000
vn -0.100000 0.000000 0.000000
vn -0.100000 0.000000 0.000000
vn -0.100000 0.000000 0.000000
vn 0.000000 0.000000 0.100000
vn 0.000000 0.000000 0.100000
vn 0.000000 0.000000 0.100000
vn 0.000000 0.000000 0.100000
vn -0.080000 0.000000 -0.060000
vn -0.080000 0.000000 -0.060000
vn -0.080000 0.000000 -0.060000
vn -0.080000 0.000000 -0.060000
vn 0.000000 0.100000 0.000000
vn 0.000000 0.100000 0.000000
vn 0.000000 0.100000 0.000000
vn 0.000000 0.100000 0.000000
vn 0.000000 0.100000 0.000000
vn 0.000000 0.100000 0.000000
vn 0.000000 0.100000 0.000000
vn 0.000000 -0.100000 0.000000
vn 0.000000 -0.100000 0.000000
vn 0.000000 -0.100000 0.000000
vn 0.000000 -0.100000 0.000000
vn 0.000000 -0.100000 0.000000
vn 0.000000 -0.100000 0.000000
vn 0.000000 -0.100000 0.000000
usemtl 0,0,0
f 13/1/1 7/2/2 14/4/4
f 14/4/4 7/2/2 8/3/3
f 9/5/5 13/6/6 11/8/8
f 11/8/8 13/6/6 14/7/7
f 10/9/9 9/10/10 12/12/12
f 12/12/12 9/10/10 11/11/11
f 4/13/13 10/14/14 6/16/16
f 6/16/16 10/14/14 12/15/15
f 3/17/17 4/18/18 5/20/20
f 5/20/20 4/18/18 6/19/19
f 1/21/21 3/22/22 2/24/24
f 2/24/24 3/22/22 5/23/23
f 7/25/25 1/26/26 8/28/28
f 8/28/28 1/26/26 2/27/27
f 2/30/30 5/31/31 8/29/29
f 8/29/29 5/31/31 11/34/34
f 8/29/29 11/34/34 14/35/35
f 5/31/31 6/32/32 11/34/34
f 11/34/34 6/32/32 12/33/33
f 1/36/36 7/37/37 3/42/42
f 3/42/42 7/37/37 9/39/39
f 3/42/42 9/39/39 4/41/41
f 4/41/41 9/39/39 10/40/40
f 7/37/37 13/38/38 9/39/39

# 14 vertices
# 42 texture params
# 42 normals
# 24 facets

# 1 groups
